<?xml version="1.0" standalone="no"?>
<!DOCTYPE svg PUBLIC "-//W3C//DTD SVG 20010904//EN"
 "http://www.w3.org/TR/2001/REC-SVG-20010904/DTD/svg10.dtd">
<svg version="1.0" xmlns="http://www.w3.org/2000/svg"
 width="262.000000pt" height="262.000000pt" viewBox="0 0 262.000000 262.000000"
 preserveAspectRatio="xMidYMid meet">
<metadata>
Created by potrace 1.14, written by Peter Selinger 2001-2017
</metadata>
<g transform="translate(0.000000,262.000000) scale(0.100000,-0.100000)"
fill="#000000" stroke="none">
<path d="M624 2421 c4 -6 -1 -12 -11 -13 -10 0 -25 -2 -33 -2 -8 -1 -14 -8
-12 -15 1 -7 -2 -10 -8 -6 -14 9 -52 -4 -44 -16 3 -5 2 -8 -3 -7 -16 4 -58
-15 -71 -33 -7 -11 -20 -19 -28 -19 -8 0 -14 -5 -14 -11 0 -5 -4 -7 -10 -4 -5
3 -10 -1 -10 -9 0 -8 -5 -18 -12 -22 -7 -5 -9 -2 -4 7 4 8 -2 3 -13 -11 -11
-14 -23 -33 -27 -43 -3 -9 -9 -15 -14 -12 -5 3 -11 -4 -15 -15 -3 -11 -11 -20
-17 -20 -6 0 -8 -3 -5 -7 4 -3 1 -13 -7 -22 -8 -9 -16 -25 -18 -36 -1 -11 -8
-26 -15 -33 -6 -7 -10 -21 -8 -32 3 -13 0 -18 -7 -14 -7 5 -9 1 -5 -9 3 -10 3
-17 -2 -17 -5 0 -7 -11 -6 -25 2 -14 -1 -28 -6 -31 -6 -3 -5 -12 3 -22 11 -13
10 -15 -5 -9 -15 6 -16 4 -6 -16 7 -12 12 -24 11 -27 -2 -6 316 -6 321 1 2 2
7 17 11 32 5 22 4 27 -6 21 -7 -4 -6 1 3 12 9 10 20 29 23 42 4 12 12 22 17
22 5 0 9 7 9 15 0 8 5 15 10 15 6 0 19 9 30 20 11 11 27 20 35 20 8 0 15 5 15
11 0 6 7 9 15 5 8 -3 15 0 15 6 0 6 3 8 7 5 3 -4 12 -2 19 4 8 7 14 7 19 -1 5
-8 10 -8 20 0 9 8 15 8 20 0 4 -7 12 -7 26 0 10 6 19 7 19 2 0 -10 54 -7 71 3
5 4 9 2 9 -3 0 -10 30 -9 48 2 6 4 12 3 12 -1 0 -5 9 -9 20 -9 11 0 20 4 20 9
0 4 6 5 13 0 17 -11 40 -10 50 2 6 7 10 6 13 -1 5 -11 67 -10 86 2 7 4 8 3 4
-4 -5 -9 0 -9 18 -2 14 5 26 6 26 2 0 -11 84 -9 93 3 6 7 10 6 13 -1 5 -11 67
-10 86 2 6 4 9 3 5 -2 -6 -11 44 -11 61 0 7 4 12 3 12 -2 0 -9 65 -7 82 4 6 4
8 3 5 -2 -8 -13 46 -12 56 1 6 7 10 6 13 -1 5 -11 67 -10 86 2 6 4 9 3 5 -2
-6 -11 44 -11 61 0 7 4 12 4 12 -1 0 -10 93 -9 109 1 6 4 11 3 11 -1 0 -5 9
-9 20 -9 11 0 20 4 20 9 0 4 6 5 13 0 17 -11 40 -10 50 2 6 7 10 6 13 -1 5
-11 67 -10 86 2 7 4 8 3 4 -4 -5 -9 0 -9 18 -2 14 5 26 6 26 1 0 -8 52 -6 78
4 6 2 12 1 12 -4 0 -9 55 -5 71 4 5 4 9 2 9 -3 0 -10 47 -8 57 2 4 3 12 1 19
-5 14 -12 14 7 0 30 -6 9 -5 12 1 8 6 -4 10 8 10 28 0 20 -4 32 -10 28 -6 -4
-7 -1 -1 8 13 21 13 159 0 152 -7 -4 -7 -1 0 8 7 8 12 26 12 42 l0 27 -895 0
c-637 0 -892 -4 -887 -11 4 -7 -2 -7 -16 1 -15 8 -20 8 -16 1z"/>
<path d="M262 1662 c-7 -9 -10 -12 -8 -6 4 8 -6 11 -28 11 -25 -1 -32 -5 -28
-16 4 -10 1 -12 -9 -7 -8 4 -6 1 4 -7 12 -10 14 -17 7 -22 -5 -3 -7 -12 -3
-18 4 -7 9 -23 11 -37 2 -13 6 -27 10 -30 4 -3 9 -14 10 -25 2 -11 8 -24 13
-29 5 -6 9 -18 9 -28 0 -10 5 -18 10 -18 6 0 10 -6 10 -13 0 -7 9 -23 19 -34
11 -12 17 -23 14 -27 -3 -3 2 -8 11 -12 9 -3 16 -12 16 -20 0 -8 6 -14 14 -14
8 0 18 -9 21 -21 4 -11 9 -18 12 -15 3 3 15 -5 27 -18 12 -13 31 -27 44 -31
13 -4 19 -11 16 -17 -5 -7 -1 -9 9 -5 10 3 17 3 17 -1 0 -8 62 -38 73 -34 4 1
7 -3 7 -9 0 -5 5 -7 10 -4 6 4 18 1 27 -7 10 -7 14 -8 10 -1 -5 7 0 9 13 6 11
-3 20 -9 20 -14 0 -5 11 -7 25 -5 15 3 25 0 25 -7 0 -8 3 -8 8 -2 9 13 42 16
42 3 0 -5 5 -6 10 -3 12 8 179 9 186 2 3 -2 21 -1 40 3 19 4 37 4 40 -1 3 -5
13 -5 25 1 13 8 19 7 19 0 0 -6 5 -8 10 -5 13 8 179 9 187 2 3 -3 15 -2 28 3
14 5 26 5 34 -3 6 -6 11 -7 11 -1 0 9 157 10 167 0 3 -3 14 -1 24 5 13 7 19 6
19 -1 0 -6 5 -8 10 -5 12 8 174 9 187 2 4 -2 17 -1 27 3 11 3 37 3 58 0 22 -4
38 -3 38 2 0 5 6 6 13 1 6 -4 23 -6 36 -4 13 1 21 -1 18 -6 -5 -8 8 -12 50
-15 7 -1 15 -8 17 -15 3 -8 10 -12 14 -9 5 3 15 -4 23 -15 8 -12 22 -30 32
-41 9 -12 17 -33 17 -49 0 -15 6 -30 12 -32 10 -4 9 -8 -2 -16 -13 -10 -13
-12 0 -21 13 -9 13 -10 0 -10 -13 0 -13 -1 0 -10 13 -9 13 -11 0 -20 -13 -9
-13 -11 -1 -19 12 -8 12 -12 2 -25 -11 -13 -11 -16 0 -16 11 0 11 -2 -1 -10
-13 -9 -13 -10 0 -10 13 0 13 -1 0 -10 -10 -6 -11 -10 -2 -10 6 0 12 -5 12
-11 0 -5 -5 -7 -10 -4 -13 8 -8 -18 5 -27 7 -5 6 -8 0 -8 -6 0 -12 -12 -13
-27 -1 -14 -9 -34 -17 -43 -8 -9 -12 -20 -8 -23 3 -4 -1 -7 -10 -7 -11 0 -14
-5 -10 -17 5 -13 2 -15 -11 -10 -11 4 -15 3 -11 -4 4 -6 -2 -13 -14 -16 -11
-3 -18 -9 -15 -14 3 -5 -1 -9 -9 -9 -8 0 -20 -7 -27 -15 -9 -11 -16 -12 -25
-5 -8 7 -15 7 -19 1 -3 -5 -32 -9 -65 -9 -32 1 -64 -2 -70 -6 -6 -4 -11 -3
-11 2 0 9 -94 7 -110 -3 -4 -3 -10 -1 -12 4 -2 6 -17 7 -40 2 -21 -5 -38 -6
-38 -2 0 9 -96 5 -110 -4 -6 -4 -10 -2 -10 3 0 9 -94 7 -110 -3 -6 -4 -10 -2
-10 3 0 9 -94 7 -110 -3 -6 -4 -10 -3 -10 2 0 9 -122 8 -146 -1 -8 -3 -14 -2
-14 2 0 4 -29 7 -65 7 -37 0 -65 -4 -65 -10 0 -7 -3 -7 -8 0 -4 6 -20 10 -37
10 -16 0 -33 -4 -37 -10 -5 -6 -8 -6 -8 2 0 8 -9 9 -30 3 -16 -5 -30 -5 -30
-1 0 9 -96 5 -110 -4 -6 -4 -10 -2 -10 3 0 9 -94 7 -110 -3 -6 -4 -10 -2 -10
2 0 12 -90 10 -90 -2 0 -7 -3 -7 -8 0 -4 6 -20 10 -37 10 -16 0 -33 -4 -37
-10 -5 -7 -8 -7 -8 0 0 11 -73 11 -90 0 -6 -3 -10 -2 -10 3 0 6 -11 9 -24 8
-13 0 -24 -5 -23 -11 1 -5 -3 -9 -9 -8 -11 2 -12 -62 -1 -73 3 -4 2 -14 -3
-23 -5 -10 -5 -23 0 -31 5 -8 6 -18 3 -23 -9 -14 -10 -66 -1 -61 4 3 8 1 8 -5
0 -5 -4 -12 -9 -16 -6 -3 -9 -14 -8 -25 1 -10 5 -17 9 -14 4 3 5 12 2 22 -5
14 -4 15 5 2 7 -11 6 -21 -4 -37 -8 -12 -15 -26 -15 -30 0 -4 5 -1 10 7 6 10
10 11 10 3 0 -19 1760 -19 1779 -1 8 7 11 8 8 2 -3 -6 0 -11 7 -11 8 0 12 6 9
14 -4 9 0 11 11 7 9 -3 24 0 33 7 14 12 16 12 8 -1 -6 -11 -3 -10 12 3 11 9
23 14 27 10 4 -5 14 1 22 11 8 11 14 16 14 12 0 -8 61 32 71 47 3 5 8 7 10 6
6 -5 124 117 127 132 2 8 10 19 18 25 8 7 14 16 13 20 -4 21 2 35 11 29 8 -5
15 28 8 38 -2 2 3 11 10 20 13 15 23 53 23 90 0 9 4 15 9 12 13 -8 6 21 -10
41 -14 17 -14 18 2 6 16 -13 17 -11 14 20 -2 18 -7 42 -11 53 -5 16 -5 17 4 5
9 -13 11 -12 11 3 0 10 -5 28 -11 39 -6 11 -7 18 -2 15 6 -4 10 15 9 43 0 28
-3 50 -8 50 -4 0 -8 5 -8 11 0 5 5 7 10 4 6 -3 10 1 10 10 0 10 -5 13 -12 9
-8 -5 -7 0 2 11 9 11 10 16 3 11 -13 -7 -14 -2 -16 66 -1 15 -5 26 -10 25 -5
-1 -11 9 -13 23 -3 14 -14 38 -26 54 -11 16 -15 26 -7 22 8 -4 5 0 -5 8 -11 9
-16 16 -11 16 4 0 -2 8 -13 19 -12 10 -22 21 -22 25 0 3 -16 22 -35 40 -19 19
-35 32 -35 30 0 -3 -10 4 -22 16 -12 11 -28 20 -35 20 -8 0 -11 5 -8 10 3 6
-1 10 -10 10 -9 0 -27 7 -40 16 -14 9 -25 13 -25 9 0 -3 -7 1 -16 9 -18 19
-38 21 -28 4 6 -9 3 -9 -9 0 -9 8 -28 15 -43 17 -14 1 -30 8 -34 15 -6 10 -9
9 -14 -1 -5 -11 -7 -11 -12 -1 -5 10 -9 10 -20 1 -8 -6 -14 -8 -14 -3 0 7
-264 11 -280 4 -3 -1 -9 -1 -15 0 -32 8 -215 4 -215 -5 0 -6 -3 -6 -8 0 -9 14
-65 13 -74 0 -5 -6 -8 -6 -8 1 0 9 -61 12 -80 4 -3 -1 -9 -1 -15 0 -29 7 -137
5 -141 -2 -3 -5 -10 -5 -16 -2 -16 10 -138 11 -144 2 -3 -5 -10 -5 -16 -2 -17
11 -122 12 -135 1 -9 -6 -13 -6 -13 1 0 5 -13 9 -30 8 -16 -1 -30 2 -30 7 0 4
-4 5 -10 2 -5 -3 -10 -1 -10 4 0 6 -7 11 -15 11 -14 0 -37 16 -71 48 -8 8 -12
18 -9 23 4 5 0 9 -8 9 -7 0 -14 6 -15 13 -1 21 -31 93 -32 77 0 -12 -3 -11
-11 3 -10 18 -11 18 -26 0 -8 -10 -12 -13 -9 -6 4 7 -5 11 -26 9 -18 -1 -39 3
-47 9 -12 8 -13 6 -8 -9 7 -16 5 -17 -9 -6 -12 11 -17 11 -23 1 -6 -10 -10 -8
-15 5 -6 16 -8 16 -22 -2 -9 -10 -12 -13 -8 -5 5 10 3 13 -8 8 -9 -3 -20 -1
-25 4 -5 5 -14 1 -21 -9z m-61 -1215 c-10 -9 -11 -8 -5 6 3 10 9 15 12 12 3
-3 0 -11 -7 -18z m9 -107 c0 -5 -5 -10 -11 -10 -5 0 -7 5 -4 10 3 6 8 10 11
10 2 0 4 -4 4 -10z"/>
</g>
</svg>
